<svg id="Layer_1" data-name="Layer 1" xmlns="http://www.w3.org/2000/svg" viewBox="0 0 601.12 393.24"><defs><style>.cls-1{fill:#f58c60;}</style></defs><path class="cls-1" d="M478.65,280.68c3.84-5.71,7.74-11.29,11.67-16.6A17.79,17.79,0,0,1,506.14,257c-10.2-15.53-24.87-37.53-42.61-64.1a17.1,17.1,0,0,0-21.32-3.49,16.27,16.27,0,0,0-7.28,17.41Z" transform="translate(-127.73 -75.84)"/><path class="cls-1" d="M719.17,192.65a17.13,17.13,0,0,0-20.74,5.14c-22.5,29.77-44,68.45-58.1,90a56.07,56.07,0,0,1-8.92,10.66,56.89,56.89,0,0,1-13,9l-68-.12a72.24,72.24,0,0,1-15.17-11.81A69.8,69.8,0,0,1,526.74,285q-10.31,18.67-20.6,37.34L508.3,326l15.32,43.23q.33,35,.65,70.05l119.25,1.19q.42-34.05.86-68.1,8.67-21.06,17.33-42.13l66.62-118.48A16.49,16.49,0,0,0,719.17,192.65Z" transform="translate(-127.73 -75.84)"/><circle class="cls-1" cx="451.38" cy="162.54" r="50.36"/><circle class="cls-1" cx="263.75" cy="224.75" r="47.39"/><path class="cls-1" d="M399.22,132.28A16.48,16.48,0,0,0,379,137.39c-21.9,29.55-42.87,68-56.56,89.39a54.14,54.14,0,0,1-21.33,19.49L235,246.15a69.88,69.88,0,0,1-24.46-24.47c-6.64-11-26.7-41.78-54.55-84.29a15.94,15.94,0,0,0-27.84,13.82l65.84,113.41,14.91,42.9q1,23.82,1.94,47.64H298l-41-73.45a20.59,20.59,0,0,1,8.44-21.06c7.79-5.19,18.69-4.11,25.84,2.91q17.83,27,35.68,53.92-.28-3.42-.58-6.83,8.44-20.92,16.88-41.83l64.86-117.61A16.5,16.5,0,0,0,399.22,132.28Z" transform="translate(-127.73 -75.84)"/><path class="cls-1" d="M338.86,469.08H443.62l1.23-40.8q7.72-19.17,15.47-38.35l59.45-107.8a15.05,15.05,0,0,0-26.69-12.67c-20.08,27.09-39.29,62.29-51.85,81.94a49.72,49.72,0,0,1-19.55,17.87L361,369.16a64.61,64.61,0,0,1-13.54-10.74,63.42,63.42,0,0,1-8.88-11.7c-6.09-10.09-24.48-38.3-50-77.26a14.61,14.61,0,0,0-25.52,12.67l60.35,104q6.84,19.67,13.67,39.33Z" transform="translate(-127.73 -75.84)"/><circle class="cls-1" cx="134.99" cy="112.18" r="41.53"/><path class="cls-1" d="M568.8,140.6a9.19,9.19,0,0,0,4.86,3.8,17.16,17.16,0,0,0,8.41.85l30-36.88a10.63,10.63,0,0,0-5.73-3.93,18.34,18.34,0,0,0-7.53-.73Z" transform="translate(-127.73 -75.84)"/><path class="cls-1" d="M495.22,117.18a12.11,12.11,0,0,0,6.08,3,17.27,17.27,0,0,0,8.48-.47L525.85,79.2a13.77,13.77,0,0,0-7-2.94,18.39,18.39,0,0,0-7.58.45Z" transform="translate(-127.73 -75.84)"/><path class="cls-1" d="M392.85,119.65a16.55,16.55,0,0,0,7.43.94,13.5,13.5,0,0,0,7.34-2.82L395.47,76.71a18.4,18.4,0,0,0-8.23-.67,14.36,14.36,0,0,0-6.54,2.55Z" transform="translate(-127.73 -75.84)"/><path class="cls-1" d="M302.8,141a17.49,17.49,0,0,0,7.57,0,11.12,11.12,0,0,0,6.39-3.69L293,98.47a18.7,18.7,0,0,0-8.28.36,11.87,11.87,0,0,0-5.68,3.33Z" transform="translate(-127.73 -75.84)"/></svg>