<svg id="Layer_1" data-name="Layer 1" xmlns="http://www.w3.org/2000/svg" viewBox="0 0 462.25 323.28"><defs><style>.cls-1{fill:#528f76;}</style></defs><path class="cls-1" d="M202.85,261.47V449H633.68V261.47Zm380.93,9h39.54v41.06c-15.09,5.72-31.39.46-38.78-11.4C576.2,286.72,583.29,271.47,583.78,270.45Zm-370.46,0h39.55c.49,1,7.57,16.27-.76,29.66-7.39,11.86-23.7,17.12-38.79,11.4Zm40.79,168.31H213V399.21c1-.49,16.27-7.58,29.66.76C254.57,407.36,259.82,423.66,254.11,438.76ZM457.5,368.88c-1.79,13.82-12.7,23.65-27.34,27.05a39.25,39.25,0,0,1-5.66,1c-1.37.12-1.65.74-1.64,1.92,0,3.26,0,6.53,0,9.79,0,1.36-.33,1.93-1.82,1.89-3.76-.09-7.53-.07-11.3,0-1.3,0-1.76-.41-1.73-1.73.08-3.18,0-6.36,0-9.53,0-1.43-.16-2.12-1.93-2.38-16.59-2.5-27.72-11.48-32.52-27.81-.1-.31-.14-.63-.23-1,8.35-1.57,16.61-3.14,24.87-4.67.94-.18,1.82-.37,2.33,1.07,2.4,6.83,7.73,9.71,14.56,10.37a24.21,24.21,0,0,0,8.22-.59c3.05-.76,4.73-2.51,4.91-5,.21-2.75-1-4.68-3.92-6.07-3.26-1.59-6.83-2.1-10.32-2.88A150.11,150.11,0,0,1,395.88,355c-19.73-7.09-22-29.91-12.05-43.57,5.46-7.51,13.12-11.13,21.9-12.75,2-.37,2.45-1.09,2.37-2.9-.13-2.92,0-5.86-.07-8.78-.06-1.58.52-2,2-2,3.6.1,7.2.14,10.79,0,1.79-.07,2.1.67,2.06,2.19-.08,2.93,0,5.86,0,8.79,0,1.38.28,1.94,1.88,2.17,9.86,1.45,18.63,5.07,25,13.24a39.79,39.79,0,0,1,4.86,8.44c.49,1.11.39,1.66-1,2.07-6.94,2.07-13.85,4.25-20.73,6.48-1.22.4-1.76.24-2.3-.94-3.84-8.4-13.4-9.38-19.71-7.55a5.41,5.41,0,0,0-.38,10.4c5.55,2.11,11.46,2.84,17.16,4.4,4.33,1.19,8.68,2.3,12.89,3.9C452.13,343,459.29,355,457.5,368.88Zm166.11,72.17H582.54c-5.72-15.09-.46-31.39,11.41-38.78,13.38-8.34,28.64-1.25,29.66-.76Z" transform="translate(-171.44 -125.69)"/><path class="cls-1" d="M198.08,368.19V255.75H400.3c-1.85-.18-3.7-.25-5.55-.39A152.36,152.36,0,0,1,376,252.69c-20.55-4.15-26.11-26.41-18.25-41.36,4.32-8.22,11.37-12.92,19.82-15.8,1.9-.65,2.26-1.43,1.92-3.21-.54-2.87-.8-5.8-1.34-8.68-.28-1.55.22-2.06,1.72-2.24,3.57-.43,7.14-.91,10.67-1.58,1.76-.33,2.17.36,2.35,1.88.34,2.9.87,5.79,1.23,8.69.17,1.38.56,1.88,2.17,1.88,10,0,19.18,2.31,26.63,9.48a39,39,0,0,1,6,7.64c.65,1,.63,1.59-.68,2.2-6.57,3-13.09,6.21-19.57,9.42-1.16.57-1.71.49-2.41-.6-5-7.76-14.62-7.34-20.6-4.61a5.41,5.41,0,0,0,1.13,10.35c5.8,1.28,11.75,1.14,17.61,1.86,4.46.55,8.93,1,13.33,2,11.64,2.6,20.2,12.59,21.12,25.75H616.79L597.71,125.69,171.44,188.21l26.64,181.61ZM549.64,141.81l39.12-5.74,6,40.63c-14.1,7.85-31,5-40-5.66C544.5,159,549.29,142.89,549.64,141.81ZM183.1,195.58l39.12-5.74c.64.93,9.86,15,3.56,29.45-5.59,12.81-21,20.38-36.72,16.92Z" transform="translate(-171.44 -125.69)"/></svg>