<svg id="Layer_1" data-name="Layer 1" xmlns="http://www.w3.org/2000/svg" viewBox="0 0 307.05 370.74"><defs><style>.cls-1{fill:#f58c60;}.cls-2{fill:#f3c027;}</style></defs><path class="cls-1" d="M356.23,464.7H506.7V418.22l77.93-147.45A30.65,30.65,0,0,0,580,243.3q-27.56-33.08-55.12-66.13c-.44-.21-9.1-4.14-16.77,1a17.36,17.36,0,0,0-6.71,19.17l40.74,62.3Q521.08,297.71,500,335.82l-133.21,1.41-43.61-79.07,39.78-62.3a15.45,15.45,0,0,0-22.05-18.69l-57.21,70.59A22,22,0,0,0,279.07,263a21.45,21.45,0,0,0,4.31,11l74.28,143.29Z" transform="translate(-278.99 -93.96)"/><path class="cls-1" d="M387.25,216a63.89,63.89,0,1,0,90.53,0Z" transform="translate(-278.99 -93.96)"/><path class="cls-2" d="M382.41,207.31H485.32l15.76-64-43.3,23.6-24.16-23.6L409,166.93,368.62,143.3Z" transform="translate(-278.99 -93.96)"/><rect class="cls-1" x="338.08" y="108.22" width="5.7" height="28.51" transform="translate(-294.55 92.91) rotate(-30)"/><rect class="cls-1" x="520.69" y="114.21" width="5.7" height="28.51" transform="translate(633.72 407.54) rotate(-150)"/><rect class="cls-1" x="153.01" width="5.7" height="28.51"/></svg>