<svg id="Layer_1" data-name="Layer 1" xmlns="http://www.w3.org/2000/svg" viewBox="0 0 446.85 363.19"><defs><style>.cls-1{fill:#f3c027;}</style></defs><path class="cls-1" d="M529.84,161.47l-1.07-41.78H277v37.49H179.5V286.82A124.48,124.48,0,0,0,217,341.46c38.81,32.32,84.57,28.82,94.28,27.86a73.38,73.38,0,0,0,51.43,33.21l-22.5,80.35H467.7l-30-78.21a91.14,91.14,0,0,0,51.43-31.07c10.83.81,61.59,3.43,101.78-33.21a128,128,0,0,0,32.88-48.51q1.28-65.9,2.56-131.8ZM225.94,319.56a133.48,133.48,0,0,1-26.69-33.19V176l76,.51q2.23,86.24,4.45,172.48A135,135,0,0,1,225.94,319.56ZM496,322c-.91,1.07-8.09,9.22-19.85,8.9a25.92,25.92,0,0,1-18.48-8.9V170a25.89,25.89,0,0,1,18.48-8.9c11.76-.32,18.94,7.83,19.85,8.9Zm114.42-29.89a133.68,133.68,0,0,1-26.69,33.2A135,135,0,0,1,530,354.7q2.22-86.25,4.45-172.49l76-.51Z" transform="translate(-179.5 -119.69)"/></svg>