<svg id="Layer_1" data-name="Layer 1" xmlns="http://www.w3.org/2000/svg" viewBox="0 0 638.71 547.43"><defs><style>.cls-1{fill:none;stroke:#000;stroke-miterlimit:10;stroke-width:43px;}.cls-2{fill:#fefefe;}.cls-3{fill:#f9f9f9;}.cls-4{fill:#050505;}</style></defs><path class="cls-1" d="M508.13,46.53H131.47V548.75L508.29,551" transform="translate(-109.97 -25.03)"/><path d="M262.75,394.73V201.18c1.65-1.34,3.61-.87,5.45-.87q85.37,0,170.73,0,30.6,0,61.21,0c1.43,0,2.95.33,4.24-.63.92-1.07.68-2.38.68-3.61q0-60.87,0-121.72c.39-2.62.86-2.8,3-1.23,4.48,3.3,8.23,7.43,12.29,11.19,7.29,6.76,14.53,13.58,21.85,20.3,10.09,9.27,20,18.69,30.18,27.91,6.19,5.63,12.3,11.35,18.43,17q16.51,15.41,33.13,30.73C631,186.81,638,193.4,645,200q15.39,14.33,30.87,28.55c6.55,6,13,12.12,19.54,18.15,10.91,10.08,21.75,20.24,32.68,30.29,6.16,5.66,12.24,11.41,18.42,17.06,2.87,2.63,2.82,3.45,0,6.05-13.2,12.07-26.16,24.39-39.21,36.63Q693,350.09,678.67,363.47q-14.91,13.92-29.79,27.87-14.32,13.4-28.65,26.79Q600.6,436.42,581,454.79q-14.64,13.75-29.33,27.45c-13.07,12.21-26.25,24.31-39.16,36.69-1.44,1.38-3.06,2.54-4.56,3.85-.82.71-1.91,2-3,.18a4,4,0,0,1,.06-1.09c.12-40.9,0-81.79,0-122.69,0-1,.1-2.11-.71-2.95-1.65-1-3.48-.59-5.23-.59l-230.6,0C266.58,395.6,264.51,396.12,262.75,394.73Z" transform="translate(-109.97 -25.03)"/><path class="cls-2" d="M504.07,524.18q-119.29,0-238.6.05c-2.13,0-2.8-.27-2.79-2.67q.15-62.47.07-124.94c1.65-1.34,3.61-.87,5.45-.88q83.88,0,167.77,0h63.46c5.25,0,5.53.27,5.53,5.48q0,59.06,0,118.12C505,521,505.11,522.7,504.07,524.18Z" transform="translate(-109.97 -25.03)"/><path class="cls-3" d="M262.75,199.3H500c4.09,0,4.09,0,4.09-4.06V72.46h.61V198.6h.62v-3.39q0-59.06,0-118.13c0-1.47.05-2.93.08-4.4.09.92.25,1.85.25,2.77q0,61.18,0,122.37c0,.91.33,1.88-.32,2.72q-119.46,0-238.94,0c-1.23,0-2.53.26-3.63-.61Z" transform="translate(-109.97 -25.03)"/><path class="cls-3" d="M504.07,524.18q0-61.84.08-123.69c0-3.29-.94-3.94-4-3.94q-118.68.12-237.36.07V396c1.1-.87,2.4-.62,3.63-.62q119.47,0,238.94,0c.62.73.32,1.61.32,2.41q0,61.59,0,123.2a19.61,19.61,0,0,1-.23,2.15c-.72-.93-.38-2-.38-3q0-59.79,0-119.57c0-.9-.34-1.89.2-2.74A4.46,4.46,0,0,0,505,400q0,60.4,0,120.82c0,1.13.29,2.3-.29,3.39Z" transform="translate(-109.97 -25.03)"/><path class="cls-2" d="M262.75,199.93q119.34,0,238.68,0c1.3,0,2.74-.52,3.89.59-1,1.06-2.35.48-3.51.48q-117.65.06-235.3,0c-1.25,0-2.5.08-3.76.12Z" transform="translate(-109.97 -25.03)"/><path class="cls-2" d="M505.32,395.37c-1.15,1.11-2.59.59-3.89.59q-119.34,0-238.68,0v-1.26c1.26,0,2.51.13,3.76.13q117.66,0,235.3,0C503,394.89,504.28,394.31,505.32,395.37Z" transform="translate(-109.97 -25.03)"/><path class="cls-2" d="M504.7,524.18V397.44l.6,0v3q0,59.15,0,118.31c0,1.47.07,2.93.11,4.39v.21l-.09.84Z" transform="translate(-109.97 -25.03)"/><path class="cls-4" d="M506.67,200.35V75.08H507V200.47Z" transform="translate(-109.97 -25.03)"/><path class="cls-4" d="M507.06,395.53V521h-.32V395.51Z" transform="translate(-109.97 -25.03)"/></svg>